<svg t="1656859942812" class="icon" viewBox="0 0 1024 1024" version="1.1" xmlns="http://www.w3.org/2000/svg" p-id="6262" width="24" height="24"><path d="M256 756.053333h512c23.466667 0 42.666667 19.2 42.666667 42.666667s-19.2 42.666667-42.666667 42.666667H256c-23.466667 0-42.666667-19.2-42.666667-42.666667s19.2-42.666667 42.666667-42.666667z m213.76-174.933333a85.333333 85.333333 0 0 1-120.32-0.426667L256 487.253333c-23.466667-23.466667-23.04-61.44 1.28-84.053333 23.04-22.186667 59.733333-21.333333 81.92 0.853333l70.4 70.4 274.346667-274.346666c23.04-23.04 60.16-23.04 83.2 0l1.706666 1.706666c23.04 23.04 23.04 60.586667-0.426666 83.626667l-298.666667 295.68z" p-id="6263" fill="#49d37b"></path></svg>